<svg width="36" height="37" viewBox="0 0 36 37" fill="none" xmlns="http://www.w3.org/2000/svg">
<path d="M33.625 17.8777H35.4844C35.3438 13.6051 33.6797 9.53069 30.8047 6.41543L29.6875 7.54897L28.8047 6.65323L29.9219 5.51969C26.8516 2.59467 22.8359 0.906241 18.625 0.771484V2.65808H17.375V0.771484C13.1641 0.914168 9.14844 2.60259 6.07812 5.51969L7.19531 6.65323L6.3125 7.54897L5.19531 6.41543C2.3125 9.53069 0.648438 13.6051 0.515625 17.8777H2.375V19.146H0.515625C0.601562 21.7936 1.27344 24.3936 2.48438 26.74L4.75781 26.2881L5 27.5326L3.14844 27.8973C3.85938 29.0467 4.6875 30.1089 5.63281 31.0601C8.75781 34.2467 12.9609 36.1016 17.3828 36.2522V34.3656H18.6328V36.2522C22.8438 36.1095 26.8594 34.4211 29.9297 31.504L28.8125 30.3705L29.6953 29.4747L30.8125 30.6083C33.6875 27.493 35.3516 23.4186 35.4922 19.146H33.625V17.8777ZM8.52344 19.7881L8.72656 21.0405L4.97656 21.6747L4.77344 20.4222L8.52344 19.7881ZM3.10156 24.8454L2.89844 23.593L7.27344 22.8558L7.47656 24.1082L3.10156 24.8454ZM29.875 25.5906C29.8672 26.5814 29.125 27.3979 28.1562 27.4851L24.1484 27.8259C23.5703 30.9254 20.625 32.9546 17.5703 32.368C15.6328 31.9955 14.0312 30.6162 13.3438 28.7455L8.14844 29.1814C8.09375 29.1894 8.04687 29.1894 7.99219 29.1894C6.95312 29.1894 6.11719 28.3412 6.11719 27.2869V25.4875H7.36719V27.279C7.36719 27.6278 7.64844 27.9131 7.99219 27.9131C8.00781 27.9131 8.02344 27.9131 8.04688 27.9131L13.0469 27.493C12.6484 24.3698 14.8203 21.5082 17.9062 21.096C19.1328 20.9375 20.375 21.1832 21.4375 21.8094L20.8125 22.9033C18.7188 21.6826 16.0469 22.404 14.8438 24.5284C13.6406 26.6528 14.3516 29.3638 16.4453 30.5845C18.5391 31.8052 21.2109 31.0839 22.4141 28.9595C23.0391 27.8576 23.1719 26.5418 22.7734 25.3369L18.625 29.554L16.3047 27.1997L17.1875 26.304L18.6172 27.7546L23.1016 23.2046L23.5078 23.9259C23.9531 24.7265 24.2031 25.6223 24.2422 26.5339L28.0469 26.2089C28.3672 26.1772 28.6172 25.9076 28.6172 25.5747V10.3789C28.6172 10.0301 28.3359 9.74472 27.9922 9.74472C27.9766 9.74472 27.9609 9.74472 27.9375 9.74472L23.625 10.1094V21.0485H22.375V10.2203L16.75 10.6959V18.6704L10.5 19.2015V11.2191L7.94531 11.4331C7.625 11.4649 7.375 11.7344 7.375 12.0673V18.5119H6.125V12.0673C6.13281 11.0764 6.875 10.26 7.84375 10.1728L27.8438 8.48434C28.875 8.39715 29.7812 9.17398 29.8672 10.2203C29.875 10.2758 29.875 10.3234 29.875 10.3789V25.5906Z" fill="#DA5D1A"/>
</svg>
