<svg width="18" height="18" viewBox="0 0 18 18" fill="none" xmlns="http://www.w3.org/2000/svg">
<path d="M13.1667 0.666481H4.83341C2.53223 0.666481 0.666748 2.53196 0.666748 4.83315V13.1665C0.666748 15.4677 2.53223 17.3331 4.83341 17.3331H13.1667C15.4679 17.3331 17.3334 15.4677 17.3334 13.1665V4.83315C17.3334 2.53196 15.4679 0.666481 13.1667 0.666481Z" stroke="black" stroke-linecap="round" stroke-linejoin="round"/>
<path d="M12.3322 8.47523C12.4351 9.16877 12.3166 9.87708 11.9937 10.4994C11.6708 11.1217 11.1598 11.6264 10.5336 11.9416C9.9073 12.2568 9.19759 12.3666 8.50537 12.2552C7.81315 12.1438 7.17368 11.817 6.67791 11.3212C6.18215 10.8254 5.85532 10.186 5.74394 9.49374C5.63255 8.80152 5.74227 8.09181 6.05749 7.46554C6.3727 6.83927 6.87737 6.32835 7.4997 6.00543C8.12203 5.68251 8.83034 5.56405 9.52388 5.6669C10.2313 5.7718 10.8863 6.10145 11.392 6.60715C11.8977 7.11285 12.2273 7.76779 12.3322 8.47523Z" stroke="black" stroke-linecap="round" stroke-linejoin="round"/>
<path d="M13.5826 4.41679H13.5914" stroke="black" stroke-linecap="round" stroke-linejoin="round"/>
</svg>
