<svg width="19" height="18" viewBox="0 0 19 18" fill="none" xmlns="http://www.w3.org/2000/svg">
<path d="M12.5588 5.90466C13.8727 5.90466 15.1327 6.42137 16.0617 7.3411C16.9908 8.26084 17.5127 9.50827 17.5127 10.809V16.5307H14.2101V10.809C14.2101 10.3754 14.0361 9.95959 13.7265 9.65301C13.4168 9.34644 12.9968 9.1742 12.5588 9.1742C12.1209 9.1742 11.7009 9.34644 11.3912 9.65301C11.0815 9.95959 10.9075 10.3754 10.9075 10.809V16.5307H7.60498V10.809C7.60498 9.50827 8.1269 8.26084 9.05593 7.3411C9.98495 6.42137 11.245 5.90466 12.5588 5.90466Z" stroke="black" stroke-linecap="round" stroke-linejoin="round"/>
<path d="M4.30256 6.72132H1V16.5299H4.30256V6.72132Z" stroke="black" stroke-linecap="round" stroke-linejoin="round"/>
<path d="M2.65153 4.26954C3.5635 4.26954 4.30281 3.53763 4.30281 2.63477C4.30281 1.73191 3.5635 1 2.65153 1C1.73955 1 1.00024 1.73191 1.00024 2.63477C1.00024 3.53763 1.73955 4.26954 2.65153 4.26954Z" stroke="black" stroke-linecap="round" stroke-linejoin="round"/>
</svg>
