<svg width="76" height="78" viewBox="0 0 76 78" fill="none" xmlns="http://www.w3.org/2000/svg">
<path d="M38 77.0477C17.1716 77.0477 0.22731 59.8517 0.22731 38.7133C0.22731 17.575 17.1716 0.378906 38 0.378906C58.8285 0.378906 75.7728 17.575 75.7728 38.7133C75.7728 59.8517 58.8285 77.0477 38 77.0477ZM38 2.2338C18.1795 2.2338 2.05544 18.5976 2.05544 38.7133C2.05544 58.829 18.1795 75.1928 38 75.1928C57.8206 75.1928 73.9446 58.829 73.9446 38.7133C73.9446 18.5976 57.8206 2.2338 38 2.2338Z" fill="#DA5D1A"/>
<path d="M46.7812 31.9415C47.71 31.9415 48.463 31.2334 48.463 30.3599C48.463 29.4864 47.71 28.7783 46.7812 28.7783C45.8523 28.7783 45.0993 29.4864 45.0993 30.3599C45.0993 31.2334 45.8523 31.9415 46.7812 31.9415Z" fill="#DA5D1A"/>
<path d="M40.6899 49.4034C40.8849 49.6916 41.1579 49.8313 41.5259 49.8313C41.894 49.8313 42.167 49.6916 42.362 49.4034C42.5704 49.0968 42.6764 48.6565 42.6764 48.0939C42.6764 47.5325 42.5704 47.0922 42.362 46.7855C42.1658 46.4962 41.8928 46.3564 41.5259 46.3564C41.1591 46.3564 40.8861 46.4974 40.6899 46.7855C40.4815 47.0935 40.3754 47.5337 40.3754 48.0939C40.3754 48.654 40.4815 49.0955 40.6899 49.4034Z" fill="#DA5D1A"/>
<path d="M31.9332 43.453C32.1294 43.7423 32.4036 43.8821 32.7704 43.8821C33.1373 43.8821 33.4103 43.7411 33.6065 43.453L33.6077 43.4517C33.8161 43.1475 33.9222 42.7073 33.9222 42.1446C33.9222 41.5832 33.8161 41.143 33.6077 40.8363C33.4127 40.5482 33.1385 40.4072 32.7717 40.4072C32.4048 40.4072 32.1306 40.5482 31.9344 40.8363C31.7272 41.1442 31.6212 41.5845 31.6212 42.1446C31.6199 42.7085 31.726 43.1475 31.9332 43.453Z" fill="#DA5D1A"/>
<path d="M29.219 31.9415C30.1479 31.9415 30.9009 31.2334 30.9009 30.3599C30.9009 29.4864 30.1479 28.7783 29.219 28.7783C28.2901 28.7783 27.5371 29.4864 27.5371 30.3599C27.5371 31.2334 28.2901 31.9415 29.219 31.9415Z" fill="#DA5D1A"/>
<path d="M59.9705 57.1396H16.0296L15.3776 63.607H60.6225L59.9705 57.1396Z" fill="#DA5D1A"/>
<path d="M29.8929 27.4899C31.2384 27.7904 32.2488 28.9602 32.2488 30.36C32.2488 31.9862 30.8887 33.3093 29.219 33.3093C27.5481 33.3093 26.188 31.9862 26.188 30.36C26.188 28.9602 27.1983 27.7892 28.545 27.4899V24.0015H19.3642L16.1662 55.7708H59.8328L56.6348 24.0015H47.4539V27.4899C48.8006 27.7892 49.811 28.9602 49.811 30.36C49.811 31.9862 48.4509 33.3093 46.7799 33.3093C45.1103 33.3093 43.7501 31.9862 43.7501 30.36C43.7501 28.9602 44.7605 27.7904 46.106 27.4899V24.0015H29.8929V27.4899ZM42.6386 45.0372C42.9787 45.1794 43.2821 45.3945 43.5381 45.6777C43.7916 45.9597 43.9902 46.3059 44.1292 46.7066C44.2681 47.1048 44.3388 47.571 44.3388 48.0928C44.3388 48.6159 44.2681 49.0821 44.1292 49.4803C43.9902 49.8797 43.7916 50.2272 43.5393 50.5079C43.2821 50.7923 42.9787 51.0074 42.6386 51.1509C42.2974 51.2931 41.9245 51.3648 41.5271 51.3648C41.1286 51.3648 40.7544 51.2919 40.4156 51.1509C40.0719 51.0062 39.7697 50.791 39.515 50.5091C39.2615 50.2272 39.0628 49.8809 38.9239 49.4803C38.785 49.0858 38.7143 48.6183 38.7143 48.0928C38.7143 47.5685 38.785 47.1023 38.9239 46.7066C39.0616 46.3059 39.2603 45.9597 39.5138 45.6777C39.7685 45.3958 40.0707 45.1806 40.4144 45.0359C41.0933 44.7503 41.9549 44.749 42.6386 45.0372ZM41.4467 39.1238L34.7814 51.1163H32.8509L39.5174 39.1238H41.4467ZM33.8819 39.0892C34.2268 39.2338 34.5291 39.449 34.7814 39.7309C35.0324 40.0079 35.2311 40.353 35.3724 40.7573L35.3737 40.7586C35.5114 41.1567 35.5809 41.6242 35.5809 42.146C35.5809 42.6679 35.5114 43.1341 35.3737 43.5335C35.2311 43.9378 35.0324 44.2829 34.7814 44.5611C34.5291 44.8418 34.2256 45.0582 33.8807 45.2029C33.5419 45.3451 33.1677 45.418 32.7692 45.418C32.3719 45.418 31.9989 45.3451 31.6577 45.2041C31.314 45.0594 31.0118 44.843 30.7583 44.5611C30.506 44.2829 30.3073 43.9378 30.1672 43.5335C30.0282 43.1316 29.9575 42.6654 29.9575 42.146C29.9575 41.6266 30.0282 41.1604 30.1672 40.7586C30.3085 40.353 30.5072 40.0067 30.7607 39.7297C31.013 39.449 31.3152 39.2326 31.6589 39.0892C32.3365 38.801 33.2055 38.8023 33.8819 39.0892Z" fill="#DA5D1A"/>
<path d="M46.1072 24.0384H47.4551V17.4511C47.4551 12.7211 43.2139 8.87158 38.0001 8.87158C32.7863 8.87158 28.545 12.7199 28.545 17.4511V24.0755H29.8929V17.4511C29.8929 13.4754 33.5297 10.2405 38.0001 10.2405C42.4704 10.2405 46.1072 13.4754 46.1072 17.4511V24.0384Z" fill="#DA5D1A"/>
</svg>
