<svg width="84" height="61" viewBox="0 0 84 61" fill="none" xmlns="http://www.w3.org/2000/svg">
<path d="M43.3271 22.3003H37.5876C37.0734 22.3003 36.6528 22.7209 36.6528 23.2351C36.6528 23.7492 37.0734 24.1699 37.5876 24.1699H43.3271C43.8412 24.1699 44.2619 23.7492 44.2619 23.2351C44.2619 22.7209 43.8412 22.3003 43.3271 22.3003Z" fill="#DA5D1A"/>
<path d="M27.1554 24.1699H32.895C33.4091 24.1699 33.8298 23.7492 33.8298 23.2351C33.8298 22.7209 33.4091 22.3003 32.895 22.3003H27.1554C26.6413 22.3003 26.2207 22.7209 26.2207 23.2351C26.2207 23.7492 26.6413 24.1699 27.1554 24.1699Z" fill="#DA5D1A"/>
<path d="M16.7231 24.1699H22.4627C22.9768 24.1699 23.3975 23.7492 23.3975 23.2351C23.3975 22.7209 22.9768 22.3003 22.4627 22.3003H16.7231C16.209 22.3003 15.7883 22.7209 15.7883 23.2351C15.7883 23.7492 16.209 24.1699 16.7231 24.1699Z" fill="#DA5D1A"/>
<path d="M6.30041 24.1699H12.04C12.5541 24.1699 12.9748 23.7492 12.9748 23.2351C12.9748 22.7209 12.5541 22.3003 12.04 22.3003H6.30041C5.78628 22.3003 5.36563 22.7209 5.36563 23.2351C5.36563 23.7492 5.77694 24.1699 6.30041 24.1699Z" fill="#DA5D1A"/>
<path d="M43.3272 30.4609H6.30041C5.78628 30.4609 5.36563 30.8816 5.36563 31.3957C5.36563 31.9099 5.78628 32.3305 6.30041 32.3305H43.3365C43.8506 32.3305 44.2713 31.9099 44.2713 31.3957C44.2713 30.8816 43.8413 30.4609 43.3272 30.4609Z" fill="#DA5D1A"/>
<path d="M72.2035 23.6183V0.837646H0V50.5026H49.2587C52.427 56.317 58.4987 60.2711 65.4561 60.2711C75.6822 60.2711 84 51.7553 84 41.2857C84 33.2559 79.097 26.3946 72.2035 23.6183ZM51.3952 50.5026C51.2035 50.1942 51.0117 49.8857 50.8383 49.5679C50.6739 49.2594 50.5278 48.9509 50.3817 48.6331C49.3409 46.399 48.7383 43.9218 48.7383 41.2857C48.7383 31.8444 56.2344 24.1698 65.4561 24.1698C67.1635 24.1698 68.8161 24.4409 70.3774 24.927C70.6878 25.0298 70.9891 25.1513 71.2904 25.2635C71.6009 25.385 71.9022 25.4972 72.2035 25.6374C78.0652 28.3016 82.1739 34.3122 82.1739 41.2857C82.1739 50.727 74.6778 58.4016 65.4561 58.4016C59.5578 58.4016 54.3717 55.2513 51.3952 50.5026ZM1.82609 48.6331V16.0185H70.3774V23.0013C68.807 22.562 67.1635 22.3003 65.4561 22.3003C55.23 22.3003 46.9122 30.8161 46.9122 41.2857C46.9122 43.8937 47.4326 46.3709 48.3639 48.6331H1.82609ZM1.82609 2.70721H70.3774V5.30591H1.82609V2.70721ZM1.82609 14.149V7.17547H70.3774V14.149H1.82609Z" fill="#DA5D1A"/>
<path d="M73.2963 36.8268V34.8357C73.2963 34.1627 73.1841 33.5176 72.9878 32.9007C72.7728 32.2463 72.455 31.6387 72.053 31.0966C70.9126 29.5542 69.0804 28.554 67.0145 28.554C63.5558 28.554 60.7421 31.3677 60.7421 34.8263V36.8174H59.1998V52.447H74.8293V36.8268H73.2963ZM62.6117 34.8357C62.6117 32.4053 64.5934 30.4329 67.0145 30.4329C69.4356 30.4329 71.4174 32.4146 71.4174 34.8357V36.8268H62.6024V34.8357H62.6117ZM72.9598 50.5868H61.0693V50.5026V38.6963H72.9598V50.5026V50.5868Z" fill="#DA5D1A"/>
<path d="M67.0146 39.8928C65.4161 39.8928 64.1167 41.1922 64.1167 42.7906C64.1167 44.062 64.9393 45.1276 66.0798 45.5202V48.4741C66.0798 48.5396 66.1078 48.5863 66.1172 48.6517C66.2013 49.0817 66.5659 49.4089 67.0146 49.4089C67.4633 49.4089 67.8278 49.0817 67.912 48.6517C67.9213 48.5956 67.9493 48.5396 67.9493 48.4741V45.5109C69.0898 45.1183 69.9124 44.0526 69.9124 42.7813C69.9124 41.1922 68.613 39.8928 67.0146 39.8928ZM67.0146 43.8096C66.4537 43.8096 65.9863 43.3515 65.9863 42.7813C65.9863 42.2111 66.4443 41.753 67.0146 41.753C67.5848 41.753 68.0428 42.2111 68.0428 42.7813C68.0428 43.3515 67.5848 43.8096 67.0146 43.8096Z" fill="#DA5D1A"/>
</svg>
