<svg width="89" height="60" viewBox="0 0 89 60" fill="none" xmlns="http://www.w3.org/2000/svg">
<path d="M75.0988 15.662H63.0213C62.5613 15.662 62.1432 15.8502 61.84 16.1531C61.5367 16.4564 61.3486 16.8744 61.3486 17.3344V41.6442V47.4874V47.8542C61.3486 48.3146 61.5367 48.7326 61.84 49.0358C62.1432 49.3388 62.5613 49.5269 63.0213 49.5269H65.236L65.2373 49.5143L65.2401 49.4921L65.25 49.4112L65.2544 49.3767L65.2629 49.3121L65.2711 49.2551L65.2773 49.2114L65.2858 49.1544L65.2937 49.1062L65.3033 49.0475L65.3039 49.0423L65.3196 48.9525L65.3207 48.9464L65.3384 48.8507V48.8504L65.3514 48.7852L65.3582 48.75L65.3712 48.6882L65.3804 48.6445L65.391 48.5953L65.4047 48.5352L65.4149 48.4908L65.4258 48.444L65.4405 48.3829L65.4419 48.3784L65.4631 48.2941L65.4651 48.2852L65.4897 48.192L65.5143 48.1035L65.5157 48.0987L65.5358 48.0284L65.5447 47.9977L65.5621 47.9399L65.5785 47.8853L65.5894 47.8505L65.6092 47.7883L65.6243 47.7419L65.6366 47.7043L65.6567 47.6442L65.6571 47.6428L65.6885 47.5527L65.6895 47.5496L65.7206 47.4628L65.7219 47.4594L65.738 47.4157L65.7609 47.3539L65.7759 47.3153L65.795 47.2655L65.8141 47.2173L65.8357 47.1637L65.8517 47.1237L65.8835 47.0476L65.8896 47.0325L65.9118 46.9813L65.9569 46.8785L65.9702 46.8481L65.9767 46.8341L65.9863 46.8133L66.0167 46.747L66.0402 46.6968L66.0542 46.6668L66.0826 46.6084L66.1065 46.5596L66.1232 46.5257L66.1546 46.4636L66.1669 46.4393L66.1751 46.4229L66.2171 46.342L66.2188 46.3396L66.2629 46.2566L66.269 46.2457L66.2817 46.2225L66.3175 46.1576L66.3309 46.1337L66.3674 46.0691L66.3855 46.0381L66.4166 45.9848L66.4425 45.9407L66.4627 45.9069L66.4948 45.8536L66.4975 45.8496L66.5436 45.7748L66.5467 45.7696L66.5969 45.6904L66.6017 45.6829L66.6478 45.6115L66.6539 45.6023L66.6792 45.564L66.7086 45.52L66.7383 45.4763L66.7676 45.4332L66.7926 45.397L66.8383 45.3322L66.8479 45.3188L66.8947 45.254L66.9087 45.2341L66.9142 45.227L66.9695 45.1515L66.9732 45.1467L67.0357 45.0641L67.0501 45.046L67.0952 44.9879L67.1198 44.9565L67.1614 44.9039L67.1826 44.8776L67.2304 44.8192L67.2458 44.8001L67.2949 44.7413L67.311 44.7222L67.3185 44.7133L67.3793 44.6423L67.3813 44.6399L67.4408 44.572L67.4527 44.5586L67.5029 44.5023L67.5101 44.4944L67.549 44.4521L67.5832 44.4149L67.6115 44.3845L67.6576 44.3353L67.6815 44.3104L67.7256 44.2646L67.7481 44.241L67.7587 44.2304L67.8243 44.1642C69.4591 42.5297 71.7172 41.5182 74.2116 41.5182C76.706 41.5182 78.9644 42.5297 80.5988 44.1642L80.6644 44.2304L80.675 44.241L80.6979 44.2646L80.7419 44.3104L80.7655 44.3353L80.8116 44.3845L80.8403 44.4149L80.8744 44.4521L80.913 44.4944L80.9202 44.5023L80.9704 44.5586L80.9824 44.572L81.0418 44.6399L81.0438 44.6423L81.1046 44.7133L81.1125 44.7222L81.1282 44.7413L81.1774 44.8001L81.1931 44.8192L81.2405 44.8776L81.2617 44.9039L81.3037 44.9565L81.3283 44.9879L81.3734 45.046L81.3874 45.0641L81.4499 45.1467L81.4536 45.1515L81.5093 45.227L81.5144 45.2341L81.5288 45.254L81.5756 45.3188L81.5848 45.3322L81.6305 45.397L81.6555 45.4332L81.6852 45.4763L81.7146 45.52L81.7439 45.564L81.7692 45.6023L81.7753 45.6115L81.8214 45.6829L81.8266 45.6904L81.8764 45.7696L81.8798 45.7748L81.9259 45.8496L81.9283 45.8536L81.9604 45.9069L81.9806 45.9407L82.0069 45.9848L82.038 46.0381L82.0557 46.0691L82.0923 46.1337L82.1059 46.1576L82.1414 46.2225L82.1544 46.2457L82.1602 46.2566L82.2046 46.3396L82.206 46.342L82.248 46.4229L82.2565 46.4393L82.2688 46.4636L82.3002 46.5257L82.3166 46.5596L82.3409 46.6084L82.3689 46.6668L82.3829 46.6968L82.4068 46.747L82.4372 46.8133L82.4468 46.8341L82.4529 46.8481L82.4666 46.8785L82.5116 46.9813L82.5335 47.0325L82.5396 47.0476L82.5714 47.1237L82.5878 47.1637L82.6093 47.2173L82.6281 47.2655L82.6476 47.3153L82.6622 47.3539L82.6855 47.4157L82.7015 47.4594L82.7029 47.4628L82.734 47.5496L82.735 47.5527L82.7661 47.6428L82.7667 47.6442L82.7866 47.7043L82.7992 47.7419L82.8142 47.7883L82.8337 47.8505L82.8446 47.8853L82.8614 47.9399L82.8784 47.9977L82.8873 48.0284L82.9078 48.0987L82.9088 48.1035L82.9334 48.192L82.958 48.2852L82.9604 48.2941L82.9816 48.3784L82.9826 48.3829L82.9973 48.444L83.0085 48.4908L83.0188 48.5352L83.0321 48.5953L83.043 48.6445L83.0523 48.6882L83.0649 48.75L83.0721 48.7852L83.0847 48.8504V48.8507L83.1025 48.9464L83.1035 48.9525L83.1192 49.0423L83.1199 49.0475L83.1294 49.1062L83.1373 49.1544L83.1458 49.2114L83.1523 49.2551L83.1602 49.3121L83.1691 49.3767L83.1731 49.4112L83.1831 49.4921L83.1858 49.5143L83.1871 49.5269H85.2782C85.7382 49.5269 86.1562 49.3388 86.4595 49.0358C86.7628 48.7326 86.9509 48.3146 86.9509 47.8542V44.4009H83.8381C83.4897 44.4009 83.1728 44.2585 82.9426 44.0286H82.9409C82.7111 43.7988 82.5683 43.4812 82.5683 43.1315V39.5886C82.5683 39.2393 82.7111 38.9213 82.9409 38.6911L82.9419 38.6922C83.1728 38.4616 83.4901 38.3186 83.8381 38.3186H86.9509V31.476L76.4744 16.3768C76.3102 16.1402 76.109 15.9595 75.8815 15.8406C75.6572 15.7235 75.3929 15.662 75.0988 15.662ZM32.0783 11.2757C31.7911 11.0342 31.7539 10.6053 31.9957 10.3181C32.2375 10.0309 32.6664 9.99364 32.9536 10.2354L35.6253 12.485L40.3514 5.91873C40.571 5.61376 40.9966 5.54444 41.3015 5.76403C41.6065 5.98362 41.6755 6.4088 41.4562 6.71377L36.3011 13.8756L36.269 13.9156C36.0276 14.2028 35.5986 14.24 35.3114 13.9982L32.0783 11.2757ZM36.8677 0.415283C39.6418 0.415283 42.1536 1.53988 43.9718 3.35808C45.5632 4.94952 46.6233 7.07236 46.8627 9.43766H54.0945C54.6604 9.43766 55.1191 9.89631 55.1191 10.4619V37.5556H57.26C58.0017 37.5556 58.6988 37.7554 59.2995 38.1034V17.3344C59.2995 16.3089 59.7172 15.3782 60.391 14.7044C61.0648 14.0306 61.9954 13.613 63.0213 13.613H75.0988C75.7163 13.613 76.3006 13.7567 76.8262 14.0317C77.3487 14.3052 77.7998 14.7041 78.155 15.2164L88.7681 30.5123C88.9129 30.6889 89 30.9149 89 31.1612V47.8542C89 48.8801 88.582 49.8111 87.9082 50.4845C87.2347 51.1583 86.3041 51.576 85.2782 51.576H83.1871C82.9519 53.6613 82.0065 55.5314 80.5988 56.9387C80.258 57.2799 79.8895 57.5938 79.4975 57.8769H85.0853C85.4626 57.8769 85.7683 58.1829 85.7683 58.5602C85.7683 58.9373 85.4626 59.2433 85.0853 59.2433H76.6803C75.8959 59.4656 75.0677 59.5848 74.2116 59.5848C73.3557 59.5848 72.5276 59.4656 71.7428 59.2433H60.4787C60.1014 59.2433 59.7957 58.9373 59.7957 58.5602C59.7957 58.1829 60.1014 57.8769 60.4787 57.8769H68.9257C68.5336 57.5938 68.1655 57.2799 67.8243 56.9387C66.4169 55.5314 65.4716 53.6613 65.2363 51.576H63.0213C61.9954 51.576 61.0648 51.1583 60.391 50.4845C60.3322 50.4258 60.2755 50.3647 60.2205 50.3022C60.197 50.3268 60.1727 50.3517 60.1485 50.3759C59.4081 51.1163 58.3856 51.576 57.26 51.576H39.7319C39.4966 53.6613 38.5513 55.5314 37.144 56.9387C36.8028 57.2799 36.4343 57.5938 36.0426 57.8769H49.8041C50.1811 57.8769 50.4871 58.1829 50.4871 58.5602C50.4871 58.9373 50.1811 59.2433 49.8041 59.2433H33.2255C32.4407 59.4656 31.6125 59.5848 30.7567 59.5848C29.9005 59.5848 29.0724 59.4656 28.2879 59.2433H10.9344C10.5573 59.2433 10.2513 58.9373 10.2513 58.5602C10.2513 58.1829 10.5573 57.8769 10.9344 57.8769H25.4704C25.0787 57.5938 24.7102 57.2799 24.3694 56.9387C22.9617 55.5314 22.0164 53.6613 21.7811 51.576H15.8176C14.692 51.576 13.6695 51.1163 12.9291 50.3759C12.1887 49.6355 11.7291 48.6127 11.7291 47.4874V41.6442C11.7291 40.5189 12.1887 39.4964 12.9291 38.7557C13.6695 38.0153 14.692 37.5556 15.8176 37.5556H18.6163V10.4619C18.6163 9.89631 19.075 9.43766 19.6408 9.43766H26.8727C27.1121 7.07236 28.1721 4.94952 29.7636 3.35808C31.5818 1.53988 34.0936 0.415283 36.8677 0.415283ZM46.8627 11.4864C46.6233 13.8517 45.5632 15.9745 43.9718 17.566C42.1536 19.3842 39.6418 20.5088 36.8677 20.5088C34.0936 20.5088 31.5818 19.3842 29.7636 17.566C28.1721 15.9745 27.1121 13.8517 26.8727 11.4864H20.6654V37.5556H53.07V11.4864H46.8627ZM43.006 4.32388C41.4354 2.75293 39.2651 1.78133 36.8677 1.78133C34.4706 1.78133 32.3 2.75293 30.7294 4.32388C29.2793 5.77359 28.3402 7.73489 28.2042 9.91373C28.305 10.0722 28.363 10.2604 28.363 10.4619C28.363 10.6637 28.305 10.8519 28.2042 11.0103C28.3402 13.1892 29.2793 15.1505 30.7294 16.6002C32.3 18.1711 34.4706 19.1427 36.8677 19.1427C39.2651 19.1427 41.4354 18.1711 43.006 16.6002C44.5223 15.0842 45.4802 13.0092 45.5448 10.7105C45.525 10.6309 45.5144 10.5476 45.5144 10.4619C45.5144 10.3765 45.525 10.2931 45.5448 10.2136C45.4802 7.9152 44.5223 5.83984 43.006 4.32388ZM56.0234 59.2433C55.646 59.2433 55.3404 58.9373 55.3404 58.5602C55.3404 58.1829 55.646 57.8769 56.0234 57.8769H57.2672C57.6445 57.8769 57.9502 58.1829 57.9502 58.5602C57.9502 58.9373 57.6445 59.2433 57.2672 59.2433H56.0234ZM43.2058 34.1333C42.923 34.1333 42.6935 33.9038 42.6935 33.6211C42.6935 33.3383 42.923 33.1088 43.2058 33.1088H47.0597C47.3425 33.1088 47.572 33.3383 47.572 33.6211C47.572 33.9038 47.3425 34.1333 47.0597 34.1333H43.2058ZM59.2995 41.6442C59.2995 41.0844 59.07 40.5749 58.6998 40.2047C58.3296 39.8345 57.8197 39.6047 57.26 39.6047H54.1034H54.0945H54.0856H19.6497H19.6408H19.632H15.8176C15.2579 39.6047 14.748 39.8345 14.3778 40.2047C14.008 40.5746 13.7781 41.0844 13.7781 41.6442V47.4874C13.7781 48.0472 14.008 48.557 14.3778 48.9272C14.748 49.2974 15.2579 49.5269 15.8176 49.5269H21.7811C22.0164 47.442 22.9617 45.5716 24.3694 44.1642C26.0039 42.5297 28.2623 41.5182 30.7567 41.5182C33.2507 41.5182 35.5092 42.5297 37.144 44.1642C38.5513 45.5716 39.4966 47.442 39.7319 49.5269H57.26C57.8197 49.5269 58.3296 49.2974 58.6998 48.9272C59.07 48.557 59.2995 48.0472 59.2995 47.4874V41.6442ZM86.9509 43.3763V39.3431H83.8381C83.7701 39.3431 83.7086 39.3701 83.6653 39.4138V39.4155C83.6209 39.4602 83.5929 39.5217 83.5929 39.5886V43.1315C83.5929 43.1984 83.6209 43.2599 83.6653 43.3043L83.6642 43.3053C83.7086 43.349 83.7701 43.3763 83.8381 43.3763H86.9509ZM0.548338 30.975C0.265567 30.975 0.0360718 30.7459 0.0360718 30.4628C0.0360718 30.18 0.265567 29.9505 0.548338 29.9505H1.07324C1.35635 29.9505 1.58551 30.18 1.58551 30.4628C1.58551 30.7459 1.35635 30.975 1.07324 30.975H0.548338ZM5.26563 30.975C4.98286 30.975 4.75336 30.7459 4.75336 30.4628C4.75336 30.18 4.98286 29.9505 5.26563 29.9505H15.9758C16.2589 29.9505 16.4884 30.18 16.4884 30.4628C16.4884 30.7459 16.2589 30.975 15.9758 30.975H5.26563ZM7.79827 24.1465C7.5155 24.1465 7.28601 23.917 7.28601 23.6343C7.28601 23.3512 7.5155 23.122 7.79827 23.122H15.9758C16.2589 23.122 16.4884 23.3512 16.4884 23.6343C16.4884 23.917 16.2589 24.1465 15.9758 24.1465H7.79827ZM65.2302 35.7378C64.9474 35.7378 64.7179 35.5083 64.7179 35.2255C64.7179 34.9427 64.9474 34.7132 65.2302 34.7132H67.7669C68.0497 34.7132 68.2792 34.9427 68.2792 35.2255C68.2792 35.5083 68.0497 35.7378 67.7669 35.7378H65.2302ZM30.7567 47.5093C31.5948 47.5093 32.3546 47.8501 32.9051 48.4006L32.9062 48.4017L32.9075 48.4006C33.458 48.9512 33.7989 49.7117 33.7989 50.5515C33.7989 51.3912 33.458 52.1521 32.9075 52.7027C32.357 53.2532 31.5965 53.5937 30.7567 53.5937C29.9169 53.5937 29.156 53.2528 28.6055 52.7023L28.5666 52.6596C28.0389 52.1115 27.7145 51.3684 27.7145 50.5515C27.7145 49.7141 28.0557 48.9539 28.6069 48.402L28.6055 48.4006C29.156 47.8501 29.9169 47.5093 30.7567 47.5093ZM31.9431 49.3651C31.6402 49.0625 31.2205 48.8753 30.7567 48.8753C30.2936 48.8753 29.8746 49.0632 29.5713 49.3664L29.5699 49.3651L29.5689 49.3664C29.2674 49.6676 29.0805 50.0867 29.0805 50.5515C29.0805 51.0016 29.2557 51.4087 29.5406 51.7078L29.5713 51.7369C29.8746 52.0398 30.2936 52.2276 30.7567 52.2276C31.2194 52.2276 31.6388 52.0398 31.9417 51.7369C32.245 51.4336 32.4325 51.0146 32.4325 50.5515C32.4325 50.0887 32.245 49.6693 31.9417 49.3661L31.9431 49.3651ZM35.6949 45.6129C34.4313 44.3493 32.6852 43.5672 30.7567 43.5672C28.8278 43.5672 27.082 44.3493 25.8181 45.6129C24.5542 46.8768 23.7724 48.623 23.7724 50.5515C23.7724 52.48 24.5542 54.2261 25.8181 55.4901C27.082 56.754 28.8278 57.5357 30.7567 57.5357C32.6852 57.5357 34.4313 56.754 35.6949 55.4901C36.9589 54.2261 37.7406 52.48 37.7406 50.5515C37.7406 48.623 36.9589 46.8768 35.6949 45.6129ZM74.2116 47.5093C75.0496 47.5093 75.8095 47.8501 76.36 48.4006L76.3614 48.4017L76.3627 48.4006C76.9133 48.9512 77.2537 49.7117 77.2537 50.5515C77.2537 51.3912 76.9133 52.1521 76.3627 52.7027C75.8122 53.2532 75.0517 53.5937 74.2116 53.5937C73.3718 53.5937 72.6112 53.2528 72.0607 52.7023L72.0215 52.6596C71.4942 52.1115 71.1694 51.3684 71.1694 50.5515C71.1694 49.7141 71.5106 48.9539 72.0621 48.402L72.0607 48.4006C72.6112 47.8501 73.3718 47.5093 74.2116 47.5093ZM75.3983 49.3651C75.0951 49.0625 74.6757 48.8753 74.2116 48.8753C73.7488 48.8753 73.3294 49.0632 73.0265 49.3664L73.0252 49.3651L73.0238 49.3664C72.7222 49.6676 72.5358 50.0867 72.5358 50.5515C72.5358 51.0016 72.7106 51.4087 72.9954 51.7078L73.0265 51.7369C73.3294 52.0398 73.7488 52.2276 74.2116 52.2276C74.6747 52.2276 75.0937 52.0398 75.3969 51.7369C75.6999 51.4336 75.8877 51.0146 75.8877 50.5515C75.8877 50.0887 75.6999 49.6693 75.3969 49.3661L75.3983 49.3651ZM67.2277 50.5515C67.2277 52.48 68.0094 54.2261 69.2733 55.4901C70.5369 56.754 72.2831 57.5357 74.2116 57.5357C76.1401 57.5357 77.8862 56.754 79.1501 55.4901C80.4137 54.2261 81.1958 52.48 81.1958 50.5515C81.1958 48.623 80.4137 46.8768 79.1501 45.6129C77.8862 44.3493 76.1401 43.5672 74.2116 43.5672C72.2831 43.5672 70.5369 44.3493 69.2733 45.6129C68.0094 46.8768 67.2277 48.623 67.2277 50.5515ZM81.079 30.4781L73.7232 19.4292H65.9135V30.4781H81.079ZM74.6555 18.3699L82.8945 30.7459C82.9829 30.861 83.0352 31.0051 83.0352 31.1612C83.0352 31.5385 82.7295 31.8445 82.3522 31.8445H65.2302C64.8531 31.8445 64.5471 31.5385 64.5471 31.1612V18.7459C64.5471 18.3689 64.8531 18.0629 65.2302 18.0629H74.0872V18.0646C74.3079 18.0649 74.5244 18.1721 74.6555 18.3699Z" fill="#DACA1A"/>
</svg>
