<svg width="56" height="60" viewBox="0 0 56 60" fill="none" xmlns="http://www.w3.org/2000/svg">
<path d="M31.4962 48.9504H24.5286C23.5349 48.9504 22.7023 48.1983 22.602 47.2096L22.2828 44.068C21.763 43.8157 21.2608 43.5294 20.7792 43.2103L17.8225 44.5243C16.9215 44.9244 15.8641 44.5843 15.3656 43.7341L11.8819 37.7928C11.3734 36.9255 11.613 35.8134 12.4336 35.2326L15.0442 33.3846C15.026 33.1076 15.0169 32.8303 15.0169 32.5537C15.0169 32.2772 15.026 31.9998 15.0442 31.7228L12.4336 29.8749C11.613 29.294 11.3733 28.1819 11.8819 27.3147L15.3656 21.3733C15.864 20.5231 16.9216 20.1831 17.8225 20.5832L20.7792 21.8971C21.2608 21.5781 21.763 21.2918 22.2828 21.0394L22.602 17.8979C22.7023 16.9092 23.5349 16.157 24.5286 16.157H31.4962C32.4899 16.157 33.3225 16.9092 33.4228 17.8979L33.742 21.0394C34.2618 21.2917 34.764 21.5781 35.2456 21.8971L38.2022 20.5832C39.1033 20.1829 40.1608 20.5231 40.6591 21.3733L44.1428 27.3147C44.6514 28.1819 44.4118 29.294 43.5912 29.8749L40.9806 31.7228C40.9988 31.9998 41.0079 32.2772 41.0079 32.5537C41.0079 32.8303 40.9988 33.1076 40.9806 33.3846L43.5912 35.2326C44.4118 35.8134 44.6515 36.9255 44.1428 37.7928L40.6591 43.7341C40.1607 44.5842 39.103 44.9242 38.2022 44.5243L35.2456 43.2103C34.764 43.5294 34.2618 43.8156 33.742 44.068L33.4228 47.2096C33.3225 48.1983 32.49 48.9504 31.4962 48.9504ZM26.2785 45.0772H29.7462L30.0035 42.5432C30.0779 41.8098 30.5624 41.1822 31.2533 40.9245C32.1746 40.5808 33.0297 40.0941 33.7948 39.478C34.3601 39.0226 35.1326 38.9218 35.7958 39.2165L38.1935 40.2819L39.9027 37.3671L37.8095 35.8855C37.2048 35.4575 36.8972 34.7218 37.0173 33.9908C37.0953 33.5169 37.1346 33.0333 37.1346 32.5538C37.1346 32.0743 37.0951 31.5908 37.0173 31.1169C36.8971 30.3859 37.2048 29.6504 37.8095 29.2222L39.9027 27.7406L38.1935 24.8257L35.7958 25.8911C35.1327 26.1858 34.3603 26.0851 33.7948 25.6297C33.0297 25.0136 32.1746 24.5269 31.2533 24.1832C30.5624 23.9255 30.0779 23.2979 30.0035 22.5644L29.7464 20.0305H26.2785L26.0212 22.5644C25.9469 23.2979 25.4623 23.9255 24.7715 24.1832C23.8502 24.5269 22.9951 25.0136 22.23 25.6297C21.6645 26.0851 20.8919 26.1856 20.229 25.8911L17.8313 24.8257L16.1221 27.7406L18.2153 29.2222C18.82 29.6502 19.1276 30.3859 19.0075 31.1169C18.9295 31.5908 18.8901 32.0743 18.8901 32.5538C18.8901 33.0333 18.9296 33.5169 19.0075 33.9908C19.1277 34.7218 18.82 35.4573 18.2153 35.8855L16.1221 37.3671L17.8313 40.2819L20.229 39.2165C20.8922 38.922 21.6646 39.0228 22.23 39.478C22.9951 40.0941 23.8502 40.5808 24.7715 40.9245C25.4623 41.1822 25.9469 41.8098 26.0212 42.5432L26.2785 45.0772Z" fill="#DA9D1A"/>
<path d="M25.8973 12.4355L22.9122 9.96759L25.9301 6.31734L22.1102 2.8787L24.7013 0L29.9013 4.68091C30.6728 5.37525 30.7594 6.55438 30.0982 7.3542L25.8973 12.4355Z" fill="#DA9D1A"/>
<path d="M41.5302 56.4232L39.6521 53.0359C40.769 52.4165 41.8408 51.7068 42.8377 50.9263L45.2254 53.9759C44.0684 54.8818 42.8251 55.7051 41.5302 56.4232ZM48.4896 50.9698L45.646 48.34C46.5081 47.4079 47.3017 46.3981 48.0049 45.3387L51.2318 47.4811C50.4144 48.7122 49.4917 49.8861 48.4896 50.9698ZM53.3833 43.603L49.8577 41.9987C50.3841 40.842 50.8223 39.6336 51.1599 38.4072L54.8942 39.4353C54.5025 40.8583 53.9941 42.2606 53.3833 43.603ZM55.7299 35.0821L51.8802 34.6555C51.9774 33.7784 52.0267 32.8877 52.0266 32.008C52.0266 31.6186 52.0171 31.2253 51.9979 30.8388L55.8666 30.6491C55.8886 31.0984 55.8998 31.5556 55.8998 32.0076C55.8998 33.0293 55.8428 34.0638 55.7299 35.0821ZM51.5073 27.0535C51.244 25.8123 50.8777 24.5814 50.4186 23.3949L54.0309 21.9974C54.5642 23.3761 54.9899 24.8068 55.2961 26.2497L51.5073 27.0535ZM48.7625 19.9502C48.121 18.8467 47.3895 17.7899 46.5881 16.8091L49.5875 14.3587C50.5179 15.4974 51.3669 16.7236 52.1109 18.0035L48.7625 19.9502ZM43.9444 14.0559C42.9952 13.214 41.9692 12.4415 40.8947 11.7597L42.97 8.48944C44.2185 9.28164 45.4109 10.1796 46.5144 11.1581L43.9444 14.0559ZM37.5177 9.97676C36.3503 9.4744 35.1329 9.06139 33.8998 8.74908L34.8505 4.99438C36.2815 5.35679 37.6938 5.83603 39.0486 6.41895L37.5177 9.97676Z" fill="#DA9D1A"/>
<path d="M28.0132 59.9252C19.9142 59.9252 11.9577 56.4005 6.51569 49.7998L9.50426 47.3359C16.8528 56.2497 29.5315 58.6466 39.6521 53.0358L41.5302 56.423C37.27 58.7853 32.6183 59.9252 28.0132 59.9252Z" fill="#DA9D1A"/>
<path d="M3.0154 44.3875C-0.168773 37.9545 -0.74756 30.6278 1.38555 23.7571C3.52563 16.8639 8.18136 11.1401 14.4947 7.63972C18.8292 5.23652 23.7242 4.03092 28.6536 4.14595L28.561 8.01813C24.3213 7.91459 20.1058 8.95713 16.3728 11.027C5.13146 17.2596 0.789073 31.1585 6.48657 42.6693L3.0154 44.3875Z" fill="#DA9D1A"/>
<path d="M26.5265 31.0342C26.5265 29.7985 25.7256 28.5518 23.9366 28.5518C22.9502 28.5518 22.1427 28.9668 21.4071 29.5878L22.0937 31.1081C22.5781 30.7042 23.0681 30.241 23.7433 30.241C24.1438 30.241 24.6761 30.3355 24.6761 31.1476C24.6674 32.007 23.9442 32.8327 22.2142 34.4793L21.3359 35.3323V36.5564H26.6983V34.867H24.2314C25.5488 33.5805 26.5265 32.4499 26.5265 31.0342Z" fill="#DA9D1A"/>
<path d="M33.7114 33.0092V28.6702H32.0025L28.671 33.4376V34.6556H31.9146V36.5567H33.7115V34.6556H34.689V33.0092H33.7114V33.0092ZM30.9473 33.0092L31.9145 31.6648V33.0092H30.9473Z" fill="#DA9D1A"/>
</svg>
