<svg width="20" height="17" viewBox="0 0 20 17" fill="none" xmlns="http://www.w3.org/2000/svg">
<path d="M19.3333 1.34168C18.5353 1.90458 17.6517 2.3351 16.7166 2.61668C16.2147 2.0396 15.5477 1.63059 14.8058 1.44495C14.0639 1.25931 13.2829 1.30601 12.5683 1.57872C11.8538 1.85144 11.2403 2.33701 10.8108 2.96977C10.3812 3.60254 10.1564 4.35196 10.1666 5.11668V5.95001C8.70213 5.98798 7.251 5.66319 5.94245 5.00455C4.63389 4.34591 3.50854 3.37387 2.66661 2.17501C2.66661 2.17501 -0.666728 9.67501 6.83327 13.0083C5.11705 14.1733 3.07257 14.7575 0.999939 14.675C8.49994 18.8417 17.6666 14.675 17.6666 5.09168C17.6658 4.85956 17.6435 4.62801 17.5999 4.40001C18.4504 3.56126 19.0506 2.50227 19.3333 1.34168V1.34168Z" stroke="black" stroke-linecap="round" stroke-linejoin="round"/>
</svg>
